# xmcd
#
# Track frame offsets:
#	151
#	21740
#	41230
#	62089
#	81200
#	99211
#	116488
#	136306
#	152731
#	169897
#
# Disc length: 2538 seconds
#
# Revision: 5
# Processed by: cddbd v1.5.2PL0 Copyright (c) Steve Scherf et al.
# Submitted via: EasyCDDAExtractor 12.0.4.1
#
DISCID=8409e80a
DTITLE=ป้าง นครินทร์  กิ่งศักดิ์ - เลี่ยมทอง
DYEAR=1900
DGENRE=AlternRock
TTITLE0=แมน
TTITLE1=คบไม่ได้
TTITLE2=สัปดาห์หนึ่งมีเจ็ดวัน
TTITLE3=ผู้ชายไม่ได้เลว (กว่าหมาและมาจากท้องแม่)
TTITLE4=หนังสือรุ่น
TTITLE5=คุณเจ๋ง
TTITLE6=มากพอ
TTITLE7=ทำอะไรสักอย่าง
TTITLE8=สัตว์ร้ายในตัวฉัน
TTITLE9=คนหน้าใหม่
EXTD=
EXTT0=
EXTT1=
EXTT2=
EXTT3=
EXTT4=
EXTT5=
EXTT6=
EXTT7=
EXTT8=
EXTT9=
PLAYORDER=
